<svg width="623" height="630" viewBox="0 0 623 630" fill="none" xmlns="http://www.w3.org/2000/svg">
<g clip-path="url(#clip0_9_309)">
<path d="M303.174 83.1222C264.845 59.346 177.451 181.982 246.575 252.869C261.947 268.632 266.508 258.993 286.618 262.307C297.945 264.172 302.557 240.269 353.499 255.238C386.989 265.079 382.088 219.127 429.59 229.849C533.301 253.247 393.655 76.608 303.162 83.1222H303.174Z" fill="#19181F"/>
<path fill-rule="evenodd" clip-rule="evenodd" d="M294.77 82.8198C300.201 92.232 314.514 94.311 327.568 90.2538C341.554 85.9068 348.811 70.6986 343.078 57.2292C339.601 49.0518 333.175 42.0084 323.574 38.2536C313.972 34.4988 303.275 38.5182 298.437 47.5272C292.3 58.9554 290.108 74.7684 294.757 82.8324L294.77 82.8198Z" fill="#19181F"/>
<path d="M280.104 183.758C278.97 178.076 276.576 173.59 273.539 170.654C269.104 166.37 263.233 165.236 257.827 168.197C254.652 169.936 251.716 173.162 249.36 178.051C251.426 180.268 253.732 181.138 256.214 181.251C261.658 171.184 270.011 174.208 272.519 184.338C275.24 185.044 277.76 184.64 280.104 183.746V183.758Z" fill="#FFF8F5"/>
<path d="M278.693 178.807C277.408 175.43 275.631 172.683 273.54 170.654C269.105 166.37 263.233 165.236 257.828 168.197C255.938 169.231 254.136 170.793 252.498 172.91C254.993 174.17 257.676 175.279 260.511 176.198C263.8 174.056 267.303 175.052 269.81 178.34C272.872 178.769 275.871 178.92 278.706 178.794L278.693 178.807Z" fill="white" stroke="#19181F" stroke-width="2.52" stroke-miterlimit="10"/>
<path fill-rule="evenodd" clip-rule="evenodd" d="M294.191 173.426C298.513 167.744 319.076 161.482 322.642 164.279C323.612 183.834 327.493 209.614 331.55 219.618C320.575 223.121 298.802 221.861 289.289 219.379C294.355 209.903 295.174 180.671 294.191 173.414V173.426Z" fill="white" stroke="#313039" stroke-width="2.52" stroke-miterlimit="10"/>
<path fill-rule="evenodd" clip-rule="evenodd" d="M273.212 136.546C267.794 135.047 262.099 138.575 260.486 144.409C258.873 150.255 261.947 156.202 267.365 157.689C272.783 159.188 278.479 155.66 280.091 149.827C281.704 143.993 278.63 138.033 273.212 136.546Z" fill="white" stroke="#313039" stroke-width="2.52" stroke-miterlimit="10"/>
<path fill-rule="evenodd" clip-rule="evenodd" d="M322.654 164.279C343.709 175.342 351.055 133.988 324.418 144.963C317.74 134.618 305.531 132.665 304.397 113.929C299.823 113.614 295.35 113.69 290.99 114.269C280.948 115.592 272.494 122.333 268.764 131.758C258.911 156.656 270.213 182.158 286.253 187.551C297.467 191.331 309.853 181.755 322.667 164.291L322.654 164.279Z" fill="white" stroke="#313039" stroke-width="2.52" stroke-miterlimit="10"/>
<path d="M335.594 152.8C336.262 153.191 337.106 152.977 337.509 152.309C337.9 151.641 337.686 150.797 337.018 150.394C336.766 150.242 336.501 150.104 336.237 149.978C334.372 149.071 332.331 148.768 330.378 149.31C328.437 149.839 326.636 151.187 325.237 153.544C325.061 153.833 324.897 154.148 324.733 154.476C324.506 154.892 324.481 155.408 324.733 155.849C325.111 156.517 325.968 156.744 326.636 156.366C327.467 155.887 328.248 155.572 328.979 155.383C329.71 155.194 330.403 155.156 331.02 155.219C331.789 155.308 332.469 154.753 332.558 153.985C332.646 153.216 332.091 152.536 331.323 152.447C330.907 152.397 330.491 152.384 330.05 152.41C330.39 152.221 330.743 152.069 331.109 151.969C332.369 151.616 333.729 151.843 335.015 152.46C335.204 152.548 335.393 152.649 335.594 152.775V152.8Z" fill="#19181F"/>
<path d="M323.826 165.022C324.242 164.367 324.04 163.51 323.385 163.107C322.73 162.691 321.873 162.893 321.47 163.548C319.302 166.988 316.682 170.528 313.519 173.905C310.356 177.269 306.665 180.47 302.33 183.217C301.688 183.632 301.486 184.489 301.902 185.132C302.318 185.774 303.174 185.976 303.817 185.56C308.366 182.662 312.234 179.323 315.535 175.808C318.836 172.292 321.558 168.613 323.813 165.035L323.826 165.022Z" fill="#19181F"/>
<path d="M356.51 183.317C352.692 177.962 348.118 174.422 343.62 172.809C337.03 170.428 330.428 171.99 326.207 177.584C323.725 180.86 322.188 185.573 322.024 191.734C325.199 193.057 327.996 192.893 330.617 191.86C331.562 178.907 341.629 178.151 348.937 187.475C352.087 186.934 354.507 185.359 356.523 183.33L356.51 183.317Z" fill="#FFF8F5"/>
<path d="M352.743 178.844C349.845 175.946 346.707 173.918 343.608 172.809C337.018 170.428 330.415 171.99 326.194 177.584C324.72 179.537 323.586 181.982 322.868 184.943C326.031 185.094 329.332 184.993 332.696 184.615C335.103 180.86 339.198 180.256 343.318 182.511C346.695 181.528 349.857 180.293 352.743 178.844Z" fill="white" stroke="#19181F" stroke-width="2.52" stroke-miterlimit="10"/>
<path fill-rule="evenodd" clip-rule="evenodd" d="M301.687 508.271L330.138 507.641L332.129 587.349C307.03 597.227 157.858 600.692 144.25 573.275C250.695 547.558 239.62 461.639 301.687 508.271Z" fill="white" stroke="#19181F" stroke-width="2.52" stroke-miterlimit="10"/>
<path fill-rule="evenodd" clip-rule="evenodd" d="M184.419 590.008C163.781 586.656 148.22 581.288 144.251 573.275C160.996 569.23 174.843 563.686 186.511 557.411C187.771 561.645 188.451 566.181 188.451 570.893C188.451 577.76 187.002 584.249 184.419 590.008Z" fill="white" stroke="#19181F" stroke-width="2.52" stroke-miterlimit="10"/>
<path fill-rule="evenodd" clip-rule="evenodd" d="M278.327 586.013L280.318 506.306C271.939 501.593 168.883 466.326 166.111 459.724C174.012 443.482 176.128 422.024 228.91 408.429C-34.7578 314.156 -22.2083 569.243 278.327 586.001V586.013Z" fill="#19181F"/>
<path fill-rule="evenodd" clip-rule="evenodd" d="M280.078 515.932L280.318 506.318C271.939 501.606 168.883 466.339 166.111 459.736C174.011 443.495 176.128 422.037 228.91 408.442C135.14 374.913 76.3362 385.598 52.9632 413.998C84.2616 467.347 172.197 507.73 280.078 515.92V515.932Z" fill="#19181F"/>
<path fill-rule="evenodd" clip-rule="evenodd" d="M326.371 581.83C309.714 561.884 210.111 511.119 216.285 480.186C225.432 434.284 351.407 410.508 386.737 421.583C584.633 350.847 649.876 521.048 466.218 571.927C429.162 582.196 384.948 583.846 326.383 581.83H326.371Z" fill="#19181F"/>
<path fill-rule="evenodd" clip-rule="evenodd" d="M232.084 509.972C221.223 499.225 214.533 488.918 216.271 480.186C225.419 434.284 351.394 410.508 386.724 421.583C478.44 388.798 541.641 407.786 564.8 442.638C516.832 487.28 425.469 517.457 320.625 517.457C289.679 517.457 259.918 514.823 232.084 509.972Z" fill="#19181F"/>
<path fill-rule="evenodd" clip-rule="evenodd" d="M308.768 506.936L280.317 506.306L278.327 586.013C303.426 595.892 452.597 599.357 466.205 571.939C359.76 546.223 370.836 460.303 308.768 506.936Z" fill="white" stroke="#19181F" stroke-width="2.52" stroke-miterlimit="10"/>
<path fill-rule="evenodd" clip-rule="evenodd" d="M426.037 588.672C446.675 585.32 462.236 579.953 466.205 571.939C449.46 567.895 435.613 562.351 423.945 556.076C422.685 560.309 422.005 564.845 422.005 569.558C422.005 576.425 423.454 582.914 426.037 588.672Z" fill="white" stroke="#19181F" stroke-width="2.52" stroke-miterlimit="10"/>
<path fill-rule="evenodd" clip-rule="evenodd" d="M377.438 519.158C355.25 496.15 343.38 480.929 308.768 506.936C316.794 518.755 332.078 526.743 349.617 526.743C360.038 526.743 369.651 523.921 377.438 519.158Z" fill="white" stroke="#19181F" stroke-width="2.52" stroke-miterlimit="10"/>
<path d="M277.268 505.084C277.986 505.373 278.793 505.033 279.083 504.315C279.372 503.597 279.032 502.79 278.314 502.501L150.235 450.261C149.517 449.971 148.71 450.311 148.421 451.03C148.131 451.748 148.471 452.554 149.189 452.844L277.268 505.084Z" fill="white"/>
<path d="M466.319 459.131C467.037 458.854 467.39 458.048 467.113 457.33C466.836 456.611 466.029 456.259 465.311 456.536L359.61 497.536C358.891 497.813 358.539 498.62 358.816 499.338C359.093 500.056 359.899 500.409 360.617 500.132L466.319 459.131Z" fill="white"/>
<path fill-rule="evenodd" clip-rule="evenodd" d="M263.9 243.155C257.108 233.541 260.825 218.547 263.459 212.638C295.337 211.113 325.363 209.702 350.802 206.212C355.905 212.965 358.979 234.335 353.209 245.965C412.794 255.793 597.056 418.03 418.955 458.552C103.88 555.534 22.7736 345.278 263.912 243.142L263.9 243.155Z" fill="white" stroke="#19181F" stroke-width="2.52" stroke-miterlimit="10"/>
<path d="M346.871 247.955C347.564 247.628 347.867 246.796 347.539 246.103C347.212 245.41 346.38 245.108 345.687 245.435C340.924 247.666 330.529 249.593 319.844 250.715C308.971 251.849 297.87 252.139 292.162 251.03C291.406 250.891 290.675 251.383 290.537 252.139C290.398 252.895 290.89 253.625 291.646 253.764C297.618 254.923 309.034 254.646 320.147 253.487C331.096 252.34 341.831 250.324 346.884 247.955H346.871Z" fill="#19181F"/>
<path d="M387.645 297.574C387.531 296.818 386.813 296.289 386.057 296.402C385.301 296.516 384.772 297.234 384.885 297.99L400.66 409.487C400.774 410.243 401.492 410.773 402.248 410.659C402.853 410.571 403.306 410.092 403.407 409.525C403.722 408.379 405.196 405.052 405.637 403.931C409.871 393.158 419.233 385.157 430.22 380.57C441.27 375.971 453.921 374.825 464.694 377.786C466.054 378.164 467.403 378.605 468.738 379.134C469.456 379.411 470.263 379.058 470.54 378.34C470.817 377.622 470.464 376.816 469.746 376.538C468.36 375.997 466.911 375.518 465.412 375.102C454.047 371.977 440.728 373.174 429.136 378C417.998 382.637 408.422 390.65 403.647 401.436L387.619 297.574H387.645Z" fill="#19181F"/>
<path d="M238.36 306.823C238.511 306.067 238.033 305.336 237.277 305.172C236.521 305.021 235.79 305.5 235.626 306.256L217.898 391.696C217.747 392.452 218.225 393.183 218.981 393.347C219.737 393.511 220.468 393.019 220.632 392.263L238.36 306.823Z" fill="#19181F"/>
<path fill-rule="evenodd" clip-rule="evenodd" d="M418.943 458.564L401.605 410.684L354.632 421.659L298.436 456.095C301.536 461.462 303.716 465.998 311.629 466.402C307.546 470.32 300.314 471.933 297.567 474.592C301.372 483.714 317.336 481.118 319.592 479.972C333.918 495.243 359.231 477.25 368.87 473.936C374.704 474.516 408.069 471.089 418.93 458.577L418.943 458.564Z" fill="white" stroke="#19181F" stroke-width="2.52" stroke-miterlimit="10"/>
<path d="M359.508 456.107C360.151 455.692 360.353 454.835 359.937 454.192C359.521 453.55 358.664 453.348 358.022 453.764L318.861 478.8C318.218 479.216 318.017 480.073 318.432 480.715C318.848 481.358 319.705 481.559 320.348 481.144L359.508 456.107Z" fill="#19181F"/>
<path d="M353.612 441.013C354.229 440.546 354.355 439.677 353.902 439.06C353.435 438.442 352.566 438.316 351.949 438.77C347.387 442.184 336.236 449.417 325.111 456.41C312.284 464.474 299.533 472.185 297.013 473.319C296.307 473.634 295.992 474.453 296.307 475.159C296.622 475.864 297.441 476.179 298.147 475.864C300.793 474.68 313.682 466.88 326.597 458.779C337.799 451.735 349.025 444.452 353.612 441.025V441.013Z" fill="#19181F"/>
<path d="M346.278 428.413C346.934 428.009 347.148 427.153 346.745 426.497C346.341 425.842 345.485 425.628 344.829 426.031L297.705 454.898C297.05 455.301 296.836 456.158 297.239 456.813C297.642 457.468 298.499 457.682 299.154 457.279L346.278 428.413Z" fill="#19181F"/>
<path fill-rule="evenodd" clip-rule="evenodd" d="M220.304 245.36C214.974 248.333 212.605 254.23 215.012 258.527C217.406 262.823 223.681 263.894 228.998 260.921C234.328 257.947 236.696 252.05 234.29 247.754C231.883 243.457 225.621 242.386 220.304 245.36Z" fill="white" stroke="#19181F" stroke-width="2.52" stroke-miterlimit="10"/>
<path fill-rule="evenodd" clip-rule="evenodd" d="M192.067 254.974C200.421 250.916 223.101 249.026 235.688 251.206C242.681 252.416 239.179 266.087 235.159 267.259C238.158 271.82 238.284 279.644 234.214 285.503C236.495 289.787 235.424 298.507 231.329 302.274C227.057 317.092 219.686 317.671 211.446 318.276L211.874 454.066C131.789 452.239 149.391 359.415 175.511 295.47L192.055 254.961L192.067 254.974Z" fill="white" stroke="#19181F" stroke-width="2.52" stroke-miterlimit="10"/>
<path d="M235.033 268.645C235.802 268.708 236.469 268.141 236.532 267.372C236.595 266.603 236.028 265.936 235.26 265.873C230.938 265.507 225.482 265.721 220.203 266.2C213.399 266.83 206.859 267.901 203.344 268.796C202.601 268.985 202.147 269.741 202.323 270.484C202.5 271.228 203.268 271.681 204.012 271.492C207.452 270.623 213.815 269.564 220.455 268.96C225.57 268.493 230.85 268.292 235.033 268.645Z" fill="#19181F"/>
<path d="M234.1 286.852C234.869 286.915 235.537 286.348 235.6 285.579C235.663 284.81 235.096 284.143 234.327 284.08C230.081 283.714 225.041 283.928 220.165 284.42C213.663 285.062 207.477 286.209 203.898 287.116C203.155 287.305 202.701 288.061 202.878 288.805C203.067 289.548 203.823 290.002 204.566 289.825C208.056 288.943 214.104 287.834 220.429 287.204C225.129 286.738 230.005 286.524 234.088 286.877L234.1 286.852Z" fill="#19181F"/>
<path d="M231.341 303.66C232.11 303.66 232.727 303.03 232.727 302.261C232.727 301.493 232.097 300.875 231.329 300.875C226.641 300.901 221.664 301.253 217.065 301.77C211.975 302.35 207.313 303.156 204.024 303.988C203.281 304.177 202.827 304.933 203.004 305.676C203.193 306.419 203.949 306.873 204.692 306.697C207.88 305.89 212.403 305.109 217.355 304.555C221.904 304.038 226.793 303.698 231.329 303.673L231.341 303.66Z" fill="#19181F"/>
<path fill-rule="evenodd" clip-rule="evenodd" d="M250.065 335.727H50.0275L120.26 484.835H320.285L250.065 335.727Z" fill="white"/>
<path d="M249.826 334.328H47.5956L119.138 486.234H322.25C298.411 435.595 274.559 384.955 250.708 334.328H249.826ZM51.9931 337.126H248.944L317.853 483.449H120.902L51.9931 337.126Z" fill="#19181F"/>
<path d="M377.263 486.234C378.031 486.234 378.661 485.604 378.661 484.835C378.661 484.067 378.031 483.437 377.263 483.437H120.248C119.479 483.437 118.849 484.067 118.849 484.835C118.849 485.604 119.479 486.234 120.248 486.234H377.263Z" fill="#19181F"/>
<path d="M184.924 422.15C178.369 422.15 173.055 416.836 173.055 410.281C173.055 403.726 178.369 398.412 184.924 398.412C191.479 398.412 196.793 403.726 196.793 410.281C196.793 416.836 191.479 422.15 184.924 422.15Z" fill="#19181F"/>
</g>
<defs>
<clipPath id="clip0_9_309">
<rect width="623" height="630" fill="white" transform="matrix(-1 0 0 1 623 0)"/>
</clipPath>
</defs>
</svg>
