<svg width="260" height="30" viewBox="0 0 260 30" fill="none" xmlns="http://www.w3.org/2000/svg">
<path d="M1.64 29.4C1.18667 29.4 0.826667 29.2667 0.56 29C0.293333 28.7067 0.16 28.3067 0.16 27.8V2.2C0.16 1.69333 0.293333 1.30667 0.56 1.04C0.826667 0.746665 1.18667 0.599998 1.64 0.599998C2.12 0.599998 2.49333 0.746665 2.76 1.04C3.02667 1.30667 3.16 1.69333 3.16 2.2V13.36H20.72V2.2C20.72 1.69333 20.8533 1.30667 21.12 1.04C21.3867 0.746665 21.76 0.599998 22.24 0.599998C22.6933 0.599998 23.0533 0.746665 23.32 1.04C23.5867 1.30667 23.72 1.69333 23.72 2.2V27.8C23.72 28.3067 23.5867 28.7067 23.32 29C23.0533 29.2667 22.6933 29.4 22.24 29.4C21.7867 29.4 21.4133 29.2667 21.12 29C20.8533 28.7067 20.72 28.3067 20.72 27.8V15.88H3.16V27.8C3.16 28.3067 3.02667 28.7067 2.76 29C2.49333 29.2667 2.12 29.4 1.64 29.4ZM39.4828 29.4C36.0161 29.4 33.3361 28.5067 31.4428 26.72C29.5495 24.9333 28.6028 22.4 28.6028 19.12C28.6028 15.9733 29.5628 13.5067 31.4828 11.72C33.4028 9.90667 36.0295 9 39.3628 9C41.4161 9 43.2428 9.33333 44.8428 10C46.4428 10.64 47.6828 11.56 48.5628 12.76C49.4695 13.9333 49.9228 15.28 49.9228 16.8C49.9228 17.92 49.6028 18.7867 48.9628 19.4C48.3495 20.0133 47.4961 20.32 46.4028 20.32H31.6028C31.6028 22.3733 32.2961 23.9867 33.6828 25.16C35.0695 26.3067 37.0028 26.88 39.4828 26.88C41.0028 26.88 42.3095 26.72 43.4028 26.4C44.4961 26.0533 45.5228 25.5067 46.4828 24.76C46.9895 24.3333 47.4028 24.12 47.7228 24.12C47.9628 24.12 48.1895 24.2267 48.4028 24.44C48.7761 24.76 48.9628 25.0933 48.9628 25.44C48.9628 25.7067 48.8028 26 48.4828 26.32C47.3895 27.36 46.1095 28.1333 44.6428 28.64C43.1761 29.1467 41.4561 29.4 39.4828 29.4ZM45.5228 17.96C46.0028 17.96 46.3628 17.8667 46.6028 17.68C46.8428 17.4667 46.9628 17.0933 46.9628 16.56C46.9628 15.6 46.6428 14.7333 46.0028 13.96C45.3628 13.1867 44.4561 12.5867 43.2828 12.16C42.1361 11.7333 40.8295 11.52 39.3628 11.52C36.9895 11.52 35.1095 12.1067 33.7228 13.28C32.3628 14.4267 31.6828 15.9867 31.6828 17.96H45.5228ZM60.7528 29.4C58.1395 29.4 56.0861 28.8267 54.5928 27.68C53.1261 26.5333 52.3928 24.9467 52.3928 22.92C52.3928 20.92 53.1661 19.3333 54.7128 18.16C56.2861 16.9867 58.4195 16.4 61.1128 16.4C62.6861 16.4 64.0728 16.6133 65.2728 17.04C66.4995 17.4667 67.4461 18.04 68.1128 18.76V16.2C68.1128 14.68 67.6061 13.52 66.5928 12.72C65.6061 11.92 64.1528 11.52 62.2328 11.52C59.7528 11.52 57.6061 12.1067 55.7928 13.28C55.3395 13.5467 54.9661 13.68 54.6728 13.68C54.4061 13.68 54.1395 13.5733 53.8728 13.36C53.5795 13.12 53.4328 12.8133 53.4328 12.44C53.4328 12.04 53.6061 11.7067 53.9528 11.44C54.9128 10.6933 56.1261 10.1067 57.5928 9.68C59.0861 9.22667 60.6061 9 62.1528 9C64.9795 9 67.1661 9.64 68.7128 10.92C70.2861 12.2 71.0728 14 71.0728 16.32V27.84C71.0728 28.88 70.5928 29.4 69.6328 29.4C69.2061 29.4 68.8595 29.2667 68.5928 29C68.3261 28.7067 68.1928 28.3333 68.1928 27.88V26.44C66.5395 28.4133 64.0595 29.4 60.7528 29.4ZM61.1128 26.96C63.1928 26.96 64.8861 26.5733 66.1928 25.8C67.4995 25 68.1528 23.9733 68.1528 22.72C68.1528 21.4667 67.5395 20.5067 66.3128 19.84C65.1128 19.1467 63.4061 18.8 61.1928 18.8C59.3261 18.8 57.8861 19.16 56.8728 19.88C55.8595 20.5733 55.3528 21.5867 55.3528 22.92C55.3528 24.2267 55.8461 25.2267 56.8328 25.92C57.8195 26.6133 59.2461 26.96 61.1128 26.96ZM77.9597 29.4C77.5064 29.4 77.1464 29.2667 76.8797 29C76.6397 28.7067 76.5197 28.3067 76.5197 27.8V10.6C76.5197 10.0933 76.6397 9.70667 76.8797 9.44C77.1197 9.14667 77.4797 9 77.9597 9C78.413 9 78.7597 9.14667 78.9997 9.44C79.2664 9.70667 79.3997 10.0933 79.3997 10.6V13C81.213 10.6 83.7197 9.4 86.9197 9.4H87.9197C88.4264 9.4 88.8264 9.52 89.1197 9.76C89.413 9.97333 89.5597 10.28 89.5597 10.68C89.5597 11.08 89.413 11.3867 89.1197 11.6C88.8264 11.8133 88.4264 11.92 87.9197 11.92H86.7997C84.533 11.92 82.733 12.5733 81.3997 13.88C80.093 15.16 79.4397 16.9067 79.4397 19.12V27.8C79.4397 28.28 79.3064 28.6667 79.0397 28.96C78.7997 29.2533 78.4397 29.4 77.9597 29.4ZM105.848 29.4C105.395 29.4 105.035 29.2667 104.768 29C104.528 28.7067 104.408 28.3067 104.408 27.8V10.6C104.408 10.0933 104.528 9.70667 104.768 9.44C105.035 9.14667 105.395 9 105.848 9C106.328 9 106.688 9.14667 106.928 9.44C107.195 9.73333 107.328 10.12 107.328 10.6V12.88C108.048 11.68 108.968 10.7333 110.088 10.04C111.235 9.34667 112.435 9 113.688 9C114.942 9 116.048 9.34667 117.008 10.04C117.968 10.7067 118.675 11.6533 119.128 12.88C120.062 11.6267 121.088 10.6667 122.208 10C123.355 9.33333 124.542 9 125.768 9C127.875 9 129.462 9.65333 130.528 10.96C131.595 12.24 132.128 14.1467 132.128 16.68V27.8C132.128 28.3067 131.995 28.7067 131.728 29C131.462 29.2667 131.102 29.4 130.648 29.4C129.688 29.4 129.208 28.8667 129.208 27.8V16.6C129.208 14.8933 128.915 13.6267 128.328 12.8C127.768 11.9467 126.795 11.52 125.408 11.52C124.235 11.52 123.182 11.88 122.248 12.6C121.315 13.2933 120.568 14.3067 120.008 15.64V27.8C120.008 28.3067 119.875 28.7067 119.608 29C119.342 29.2667 118.982 29.4 118.528 29.4C118.075 29.4 117.715 29.2667 117.448 29C117.208 28.7067 117.088 28.3067 117.088 27.8V17.2C117.088 15.36 116.755 13.96 116.088 13C115.448 12.0133 114.528 11.52 113.328 11.52C112.182 11.52 111.155 11.84 110.248 12.48C109.342 13.0933 108.622 13.9467 108.088 15.04C107.582 16.1333 107.328 17.3733 107.328 18.76V27.8C107.328 28.28 107.195 28.6667 106.928 28.96C106.688 29.2533 106.328 29.4 105.848 29.4ZM147.256 29.4C143.79 29.4 141.11 28.5067 139.216 26.72C137.323 24.9333 136.376 22.4 136.376 19.12C136.376 15.9733 137.336 13.5067 139.256 11.72C141.176 9.90667 143.803 9 147.136 9C149.19 9 151.016 9.33333 152.616 10C154.216 10.64 155.456 11.56 156.336 12.76C157.243 13.9333 157.696 15.28 157.696 16.8C157.696 17.92 157.376 18.7867 156.736 19.4C156.123 20.0133 155.27 20.32 154.176 20.32H139.376C139.376 22.3733 140.07 23.9867 141.456 25.16C142.843 26.3067 144.776 26.88 147.256 26.88C148.776 26.88 150.083 26.72 151.176 26.4C152.27 26.0533 153.296 25.5067 154.256 24.76C154.763 24.3333 155.176 24.12 155.496 24.12C155.736 24.12 155.963 24.2267 156.176 24.44C156.55 24.76 156.736 25.0933 156.736 25.44C156.736 25.7067 156.576 26 156.256 26.32C155.163 27.36 153.883 28.1333 152.416 28.64C150.95 29.1467 149.23 29.4 147.256 29.4ZM153.296 17.96C153.776 17.96 154.136 17.8667 154.376 17.68C154.616 17.4667 154.736 17.0933 154.736 16.56C154.736 15.6 154.416 14.7333 153.776 13.96C153.136 13.1867 152.23 12.5867 151.056 12.16C149.91 11.7333 148.603 11.52 147.136 11.52C144.763 11.52 142.883 12.1067 141.496 13.28C140.136 14.4267 139.456 15.9867 139.456 17.96H153.296ZM186.925 29.4C183.805 29.4 181.112 28.8 178.845 27.6C176.605 26.3733 174.898 24.68 173.725 22.52C172.552 20.3333 171.965 17.8267 171.965 15C171.965 12.1733 172.552 9.68 173.725 7.52C174.898 5.33333 176.605 3.64 178.845 2.44C181.112 1.21333 183.805 0.599998 186.925 0.599998C190.045 0.599998 192.725 1.21333 194.965 2.44C197.232 3.64 198.952 5.33333 200.125 7.52C201.298 9.68 201.885 12.1733 201.885 15C201.885 17.8267 201.298 20.3333 200.125 22.52C198.952 24.68 197.232 26.3733 194.965 27.6C192.725 28.8 190.045 29.4 186.925 29.4ZM186.925 25.2C189.965 25.2 192.325 24.2933 194.005 22.48C195.685 20.64 196.525 18.1467 196.525 15C196.525 11.8267 195.645 9.33333 193.885 7.52C192.152 5.70667 189.698 4.8 186.525 4.8C183.618 4.8 181.352 5.73333 179.725 7.6C178.125 9.44 177.325 11.9067 177.325 15C177.325 18.1467 178.165 20.64 179.845 22.48C181.525 24.2933 183.885 25.2 186.925 25.2ZM218.239 29.4C215.732 29.4 213.532 28.8933 211.639 27.88C209.772 26.8667 208.319 25.4267 207.279 23.56C206.265 21.6667 205.759 19.44 205.759 16.88V3C205.759 2.25333 205.999 1.66667 206.479 1.24C206.959 0.813332 207.599 0.599998 208.399 0.599998C209.199 0.599998 209.839 0.826665 210.319 1.28C210.825 1.70667 211.079 2.28 211.079 3V17C211.079 19.64 211.705 21.6667 212.959 23.08C214.212 24.4933 216.012 25.2 218.359 25.2C220.679 25.2 222.465 24.4933 223.719 23.08C224.999 21.64 225.639 19.6133 225.639 17V3C225.639 2.28 225.879 1.70667 226.359 1.28C226.865 0.826665 227.519 0.599998 228.319 0.599998C229.119 0.599998 229.759 0.813332 230.239 1.24C230.719 1.66667 230.959 2.25333 230.959 3V16.88C230.959 19.36 230.425 21.5467 229.359 23.44C228.319 25.3333 226.839 26.8 224.919 27.84C222.999 28.88 220.772 29.4 218.239 29.4ZM246.896 29.4C246.096 29.4 245.456 29.1867 244.976 28.76C244.496 28.3333 244.256 27.7467 244.256 27V5.12H236.536C235.762 5.12 235.149 4.94667 234.696 4.6C234.269 4.22667 234.056 3.72 234.056 3.08C234.056 2.41333 234.269 1.90667 234.696 1.56C235.122 1.18666 235.736 0.999998 236.536 0.999998H257.296C258.096 0.999998 258.709 1.18666 259.136 1.56C259.562 1.90667 259.776 2.41333 259.776 3.08C259.776 3.72 259.549 4.22667 259.096 4.6C258.669 4.94667 258.069 5.12 257.296 5.12H249.576V27C249.576 27.72 249.322 28.3067 248.816 28.76C248.336 29.1867 247.696 29.4 246.896 29.4Z" fill="#3B3B3B"/>
</svg>
