<svg width="50" height="50" viewBox="0 0 50 50" fill="none" xmlns="http://www.w3.org/2000/svg">
<path d="M21.6668 46.5278C31.6386 46.5278 39.7223 38.7549 39.7223 29.1667C39.7223 19.5784 31.6386 11.8055 21.6668 11.8055C11.695 11.8055 3.61121 19.5784 3.61121 29.1667C3.61121 38.7549 11.695 46.5278 21.6668 46.5278Z" stroke="#3B3B3B" stroke-width="3" stroke-linecap="round" stroke-linejoin="round"/>
<path d="M21.6667 11.8055C17.0304 16.4864 14.4445 22.7027 14.4445 29.1667C14.4445 35.6306 17.0304 41.8469 21.6667 46.5278C26.3029 41.8469 28.8889 35.6306 28.8889 29.1667C28.8889 22.7027 26.3029 16.4864 21.6667 11.8055Z" stroke="#3B3B3B" stroke-width="3" stroke-linecap="round" stroke-linejoin="round"/>
<path d="M3.61121 29.1667H39.7223" stroke="#3B3B3B" stroke-width="3" stroke-linecap="round" stroke-linejoin="round"/>
<path d="M24.0692 1.06486C24.0317 0.488273 24.4893 0 25.0671 0H38.0593C38.5879 0 39.0252 0.411352 39.0574 0.938938L40.3017 21.2775C40.3215 21.6019 40.1825 21.9157 39.9289 22.119L37.4773 24.0833C37.3821 24.1596 37.2738 24.2178 37.1576 24.2551L30 26.5524L27.6653 27.4382C27.4506 27.5196 27.2143 27.5247 26.9963 27.4525L24.9132 26.7628C24.5288 26.6355 24.2591 26.2889 24.2301 25.885L23.5 15.7051V13.1859C23.5 13.0505 23.5275 12.9166 23.5807 12.7922L24.5725 10.4763C24.6344 10.3317 24.6614 10.1746 24.6512 10.0177L24.0692 1.06486Z" fill="#E9E9E9"/>
<path d="M33.5333 26.2821V22.0112L35.5916 22.2196C36.1909 22.1875 36.7579 21.9486 37.1886 21.5468C37.6193 21.1449 37.8847 20.607 37.936 20.0321V14.0946C37.9431 12.5939 37.33 11.1519 36.2315 10.0859C35.133 9.01986 33.6391 8.41709 32.0784 8.41019C30.5177 8.40328 29.018 8.9928 27.9094 10.0491C26.8007 11.1053 26.1738 12.5418 26.1666 14.0425C26.1666 16.9591 26.8773 17.2237 27.25 18.7821C27.5018 19.7232 27.5126 20.709 27.2814 21.655L26.1666 26.2821" stroke="#3B3B3B" stroke-width="3" stroke-linecap="round" stroke-linejoin="round"/>
<path d="M45.45 23.9904C46.9729 22.5258 47.8288 20.5397 47.8294 18.4687C47.83 16.3976 46.9753 14.411 45.4532 12.9456" stroke="#3B3B3B" stroke-width="3" stroke-linecap="round" stroke-linejoin="round"/>
<path d="M42.4166 21.0737C42.771 20.733 43.0517 20.3281 43.2424 19.8824C43.433 19.4367 43.5299 18.9591 43.5274 18.4772C43.5249 17.9952 43.423 17.5186 43.2277 17.0748C43.0324 16.6309 42.7475 16.2287 42.3895 15.8914" stroke="#3B3B3B" stroke-width="3" stroke-linecap="round" stroke-linejoin="round"/>
</svg>
