<svg width="40" height="40" viewBox="0 0 40 40" fill="none" xmlns="http://www.w3.org/2000/svg">
<path d="M20.8333 36.6667H30C30.8841 36.6667 31.7319 36.3155 32.357 35.6904C32.9821 35.0652 33.3333 34.2174 33.3333 33.3333V11.6667L25 3.33334H10C9.11594 3.33334 8.2681 3.68453 7.64298 4.30965C7.01786 4.93478 6.66667 5.78262 6.66667 6.66668V22.5" stroke="#3B3B3B" stroke-width="3" stroke-linecap="round" stroke-linejoin="round"/>
<path d="M23.3333 3.33334V10C23.3333 10.8841 23.6845 11.7319 24.3096 12.357C24.9348 12.9822 25.7826 13.3333 26.6667 13.3333H33.3333" stroke="#3B3B3B" stroke-width="3" stroke-linecap="round" stroke-linejoin="round"/>
<path d="M22.2967 26.0433C22.6254 25.7146 22.8862 25.3243 23.0641 24.8948C23.242 24.4653 23.3336 24.0049 23.3336 23.54C23.3336 23.0751 23.242 22.6147 23.0641 22.1852C22.8862 21.7557 22.6254 21.3654 22.2967 21.0367C21.9679 20.7079 21.5776 20.4472 21.1481 20.2692C20.7186 20.0913 20.2582 19.9998 19.7933 19.9998C19.3284 19.9998 18.8681 20.0913 18.4385 20.2692C18.009 20.4472 17.6187 20.7079 17.29 21.0367L8.94 29.39C8.54375 29.786 8.2537 30.2756 8.09667 30.8133L6.70167 35.5967C6.65984 35.7401 6.65733 35.8921 6.6944 36.0368C6.73148 36.1815 6.80678 36.3136 6.91241 36.4193C7.01805 36.5249 7.15013 36.6002 7.29485 36.6373C7.43957 36.6743 7.59159 36.6718 7.735 36.63L12.5183 35.235C13.0561 35.078 13.5456 34.7879 13.9417 34.3917L22.2967 26.0433Z" stroke="#3B3B3B" stroke-width="3" stroke-linecap="round" stroke-linejoin="round"/>
</svg>
